<svg width="225" height="225" xmlns="http://www.w3.org/2000/svg" preserveAspectRatio="xMidYMid meet">

 <g>
  <title>background</title>
  <rect fill="none" id="canvas_background" height="402" width="582" y="-1" x="-1"/>
 </g>
 <g>
  <title>Layer 1</title>
  <g id="svg_1" fill="#000000" transform="translate(0,225) scale(0.10000000149011612,-0.10000000149011612) ">
   <path id="svg_2" d="m634,1956c-58,-18 -102,-54 -132,-106l-27,-45l0,-680l0,-680l27,-46c48,-81 127,-119 248,-119c121,0 200,38 248,119l27,46l3,658c2,427 -1,671 -8,696c-16,59 -62,116 -117,142c-59,28 -203,37 -269,15zm239,-105c68,-42 67,-28 67,-726c0,-700 1,-684 -69,-727c-30,-19 -50,-23 -121,-23c-100,0 -141,18 -171,77c-18,35 -19,67 -19,673c0,607 1,637 19,673c32,62 82,83 187,78c52,-2 81,-9 107,-25z"/>
   <path id="svg_3" d="m1384,1956c-57,-18 -102,-54 -132,-106l-27,-45l0,-680l0,-680l27,-46c48,-81 127,-119 248,-119c121,0 200,38 248,119l27,46l0,680l0,680l-27,46c-30,51 -84,92 -143,108c-53,14 -170,13 -221,-3zm235,-102c18,-10 41,-36 52,-56c18,-35 19,-67 19,-673c0,-606 -1,-638 -19,-673c-30,-59 -71,-77 -171,-77c-71,0 -91,4 -121,23c-70,43 -69,27 -69,727c0,547 2,630 16,664c16,40 46,67 93,82c44,14 164,4 200,-17z"/>
  </g>
  <path id="svg_4" d="m56.388889,48.055556c0,0 3.055556,-5.555556 3.055556,-5.555556c0,0 4.444444,-3.611111 4.444444,-3.611111c0,0 5.833333,-1.111111 6.111111,-1.111111c0.277778,0 7.777778,-0.277778 7.777778,-0.277778c0,0 8.611111,1.666667 8.611111,1.666667c0,0 4.722222,3.611111 4.722222,3.611111c0,0 1.666667,6.388889 1.666667,6.388889c0,0 0.555556,10.833333 0.555556,10.833333c0,0 0.555556,22.777778 0.555556,22.777778c0,0 -0.555556,90.277778 -0.555556,90.277778c0,0 -1.111111,7.777778 -1.111111,7.777778c0,0 -4.722222,3.888889 -4.722222,3.888889c0,0 -3.055556,1.666667 -3.055556,1.666667c0,0 -7.777778,1.111111 -7.777778,1.111111c0,0 -7.777778,-0.833333 -7.777778,-0.833333c0,0 -6.111111,-1.944444 -6.111111,-1.944444c0,0 -3.888889,-4.166667 -3.888889,-4.166667c0,0 -2.5,-5 -2.5,-5c0,0 0,-10 0,-10c0,0 0,-19.722222 0,-19.722222c0,0 0,-97.777778 0,-97.777778z" stroke-width="1.5" stroke="#000" fill="#fff"/>
  <path id="svg_5" d="m131.388892,48.05556c0,0 3.05555,-5.55556 3.05555,-5.55556c0,0 4.44445,-3.61111 4.44445,-3.61111c0,0 5.83333,-1.11111 6.11111,-1.11111c0.27778,0 7.77778,-0.27778 7.77778,-0.27778c0,0 8.61111,1.66667 8.61111,1.66667c0,0 4.72222,3.61111 4.72222,3.61111c0,0 1.66667,6.38889 1.66667,6.38889c0,0 0.55555,10.83333 0.55555,10.83333c0,0 0.55556,22.77778 0.55556,22.77778c0,0 -0.55556,90.27778 -0.55556,90.27778c0,0 -1.11111,7.77777 -1.11111,7.77777c0,0 -4.72222,3.88889 -4.72222,3.88889c0,0 -3.05556,1.66667 -3.05556,1.66667c0,0 -7.77777,1.11111 -7.77777,1.11111c0,0 -7.77778,-0.83333 -7.77778,-0.83333c0,0 -6.11111,-1.94445 -6.11111,-1.94445c0,0 -3.88889,-4.16666 -3.88889,-4.16666c0,0 -2.5,-5 -2.5,-5c0,0 0,-10 0,-10c0,0 0,-19.72223 0,-19.72223c0,0 0,-97.77777 0,-97.77777z" stroke-width="1.5" stroke="#000" fill="#fff"/>
 </g>
</svg>