<?xml version="1.0" standalone="no"?>
<!DOCTYPE svg PUBLIC "-//W3C//DTD SVG 20010904//EN"
 "http://www.w3.org/TR/2001/REC-SVG-20010904/DTD/svg10.dtd">
<svg version="1.0" xmlns="http://www.w3.org/2000/svg"
 width="225.000000pt" height="225.000000pt" viewBox="0 0 225.000000 225.000000"
 preserveAspectRatio="xMidYMid meet">

<g transform="translate(0.000000,225.000000) scale(0.100000,-0.100000)"
fill="#000000" stroke="none">
<path d="M634 1956 c-58 -18 -102 -54 -132 -106 l-27 -45 0 -680 0 -680 27
-46 c48 -81 127 -119 248 -119 121 0 200 38 248 119 l27 46 3 658 c2 427 -1
671 -8 696 -16 59 -62 116 -117 142 -59 28 -203 37 -269 15z m239 -105 c68
-42 67 -28 67 -726 0 -700 1 -684 -69 -727 -30 -19 -50 -23 -121 -23 -100 0
-141 18 -171 77 -18 35 -19 67 -19 673 0 607 1 637 19 673 32 62 82 83 187 78
52 -2 81 -9 107 -25z"/>
<path d="M1384 1956 c-57 -18 -102 -54 -132 -106 l-27 -45 0 -680 0 -680 27
-46 c48 -81 127 -119 248 -119 121 0 200 38 248 119 l27 46 0 680 0 680 -27
46 c-30 51 -84 92 -143 108 -53 14 -170 13 -221 -3z m235 -102 c18 -10 41 -36
52 -56 18 -35 19 -67 19 -673 0 -606 -1 -638 -19 -673 -30 -59 -71 -77 -171
-77 -71 0 -91 4 -121 23 -70 43 -69 27 -69 727 0 547 2 630 16 664 16 40 46
67 93 82 44 14 164 4 200 -17z"/>
</g>
</svg>
