<?xml version="1.0" encoding="utf-8"?>
<!-- Generator: Adobe Illustrator 21.0.0, SVG Export Plug-In . SVG Version: 6.00 Build 0)  -->
<svg version="1.1" id="Layer_1" xmlns="http://www.w3.org/2000/svg" xmlns:xlink="http://www.w3.org/1999/xlink" x="0px" y="0px"
	 viewBox="0 0 512 512" style="enable-background:new 0 0 512 512;" xml:space="preserve">
<path d="M479.6,54.6l-43.8,43.9l-10.6-12.4l-0.3-0.3c-46.4-48.7-110.8-76.3-178-76.3c-0.1,0-0.2,0-0.3,0c-34,0-66.4,6.9-95.9,19.4
	c-44.3,18.7-81.9,50-108.4,89.3C15.5,157.5,0,205,0,256c0,34,6.9,66.4,19.4,95.9c18.7,44.3,50,81.9,89.3,108.4
	c39.3,26.6,86.8,42.1,137.8,42.1c52.2,0,101.7-16.5,142.3-45.2c40.7-28.8,72.7-69.9,90.1-119.1c3.5-9.9-1.7-20.7-11.5-24.2
	c-9.9-3.5-20.7,1.7-24.2,11.5c-14.8,41.7-41.8,76.4-76.3,100.8c-34.5,24.4-76.2,38.3-120.5,38.3c-28.8,0-56.2-5.8-81.2-16.4
	c-37.4-15.8-69.3-42.3-91.8-75.6c-11.3-16.7-20.2-35-26.2-54.6c-6.1-19.6-9.4-40.4-9.4-62c0-28.8,5.8-56.2,16.4-81.2
	c15.8-37.4,42.3-69.3,75.6-91.8c16.7-11.3,35-20.2,54.6-26.2c19.6-6.1,40.4-9.4,62-9.4h0.2c56.6,0,110.7,23,149.9,63.8l0,0
	l12.3,14.4l-60.2,60.3c-12,12-3.5,32.4,13.4,32.4h131c10.5,0,19-8.5,19-19V68.1C512,51.2,491.6,42.7,479.6,54.6z"/>
</svg>
